<svg xmlns="http://www.w3.org/2000/svg" xmlns:xlink="http://www.w3.org/1999/xlink" width="500" zoomAndPan="magnify" viewBox="0 0 375 374.999991" height="500" preserveAspectRatio="xMidYMid meet" version="1.0"><defs><clipPath id="ec9722aaca"><path d="M 13.410156 18.589844 L 361.796875 18.589844 L 361.796875 356.417969 L 13.410156 356.417969 Z M 13.410156 18.589844 " clip-rule="nonzero"/></clipPath><clipPath id="98cbba8c04"><path d="M 361.398438 93.546875 L 361.398438 281.457031 C 361.398438 322.859375 327.839844 356.417969 286.441406 356.417969 L 88.371094 356.417969 C 46.972656 356.417969 13.410156 322.859375 13.410156 281.457031 L 13.410156 93.546875 C 13.410156 52.148438 46.972656 18.589844 88.371094 18.589844 L 286.441406 18.589844 C 327.839844 18.589844 361.398438 52.148438 361.398438 93.546875 Z M 361.398438 93.546875 " clip-rule="nonzero"/></clipPath><clipPath id="e5fb08f1ef"><path d="M 0.410156 0.589844 L 348.441406 0.589844 L 348.441406 338.417969 L 0.410156 338.417969 Z M 0.410156 0.589844 " clip-rule="nonzero"/></clipPath><clipPath id="8b5aa36e34"><path d="M 348.398438 75.546875 L 348.398438 263.457031 C 348.398438 304.859375 314.839844 338.417969 273.441406 338.417969 L 75.371094 338.417969 C 33.972656 338.417969 0.410156 304.859375 0.410156 263.457031 L 0.410156 75.546875 C 0.410156 34.148438 33.972656 0.589844 75.371094 0.589844 L 273.441406 0.589844 C 314.839844 0.589844 348.398438 34.148438 348.398438 75.546875 Z M 348.398438 75.546875 " clip-rule="nonzero"/></clipPath><clipPath id="3b523c5f3e"><rect x="0" width="349" y="0" height="339"/></clipPath><clipPath id="160f8d577b"><path d="M 101.738281 80.097656 L 292.988281 80.097656 L 292.988281 230 L 101.738281 230 Z M 101.738281 80.097656 " clip-rule="nonzero"/></clipPath><clipPath id="ba9abb1324"><path d="M 101.738281 149 L 241 149 L 241 290.097656 L 101.738281 290.097656 Z M 101.738281 149 " clip-rule="nonzero"/></clipPath></defs><g clip-path="url(#ec9722aaca)"><g clip-path="url(#98cbba8c04)"><g transform="matrix(1, 0, 0, 1, 13, 18)"><g clip-path="url(#3b523c5f3e)"><g clip-path="url(#e5fb08f1ef)"><g clip-path="url(#8b5aa36e34)"><path fill="#ff3131" d="M 0.410156 0.589844 L 348.796875 0.589844 L 348.796875 338.417969 L 0.410156 338.417969 Z M 0.410156 0.589844 " fill-opacity="1" fill-rule="nonzero"/></g></g></g></g></g></g><g clip-path="url(#160f8d577b)"><path fill="#f3f3f3" d="M 119.664062 85.039062 C 114.039062 88.265625 109.589844 92.757812 106.492188 98.078125 C 103.394531 103.445312 101.738281 109.550781 101.738281 116.050781 L 101.738281 178.164062 C 101.738281 184.621094 103.394531 190.726562 106.492188 196.09375 C 109.589844 201.414062 114.039062 205.90625 119.664062 209.179688 L 152.335938 228.066406 C 157.222656 230.902344 163.414062 229.242188 166.25 224.359375 C 169.085938 219.472656 167.429688 213.277344 162.542969 210.445312 L 129.871094 191.554688 L 129.828125 191.554688 C 127.34375 190.117188 125.378906 188.199219 124.113281 185.972656 C 122.847656 183.75 122.152344 181.085938 122.152344 178.164062 L 122.152344 116.050781 C 122.152344 113.128906 122.847656 110.46875 124.113281 108.285156 L 124.113281 108.242188 C 125.378906 106.019531 127.34375 104.097656 129.871094 102.660156 C 132.359375 101.21875 134.976562 100.523438 137.59375 100.523438 C 140.210938 100.523438 142.871094 101.21875 145.3125 102.660156 L 205.117188 137.207031 L 205.160156 137.207031 L 265.003906 171.710938 C 267.492188 173.148438 269.410156 175.066406 270.71875 177.335938 C 271.984375 179.5625 272.683594 182.179688 272.683594 185.144531 C 272.683594 187.890625 272.070312 190.421875 270.980469 192.515625 C 270.894531 192.648438 270.808594 192.777344 270.761719 192.910156 C 269.453125 195.175781 267.492188 197.140625 265.050781 198.535156 C 260.164062 201.328125 258.507812 207.566406 261.296875 212.40625 C 264.089844 217.292969 270.328125 218.949219 275.167969 216.15625 C 280.839844 212.886719 285.332031 208.394531 288.386719 203.117188 C 288.515625 202.898438 288.648438 202.679688 288.734375 202.417969 C 291.613281 197.226562 293.140625 191.339844 293.140625 185.101562 C 293.140625 178.644531 291.484375 172.539062 288.386719 167.171875 L 288.386719 167.128906 C 285.332031 161.851562 280.839844 157.359375 275.167969 154.085938 L 215.410156 119.585938 L 155.519531 85.039062 C 149.851562 81.765625 143.742188 80.109375 137.59375 80.109375 C 131.484375 80.109375 125.378906 81.765625 119.664062 85.039062 Z M 119.664062 85.039062 " fill-opacity="1" fill-rule="evenodd"/></g><g clip-path="url(#ba9abb1324)"><path fill="#ff8282" d="M 101.738281 239.058594 L 101.738281 254.195312 C 101.738281 260.648438 103.394531 266.757812 106.492188 272.121094 C 109.589844 277.488281 114.039062 281.980469 119.664062 285.207031 C 119.882812 285.339844 120.101562 285.46875 120.320312 285.554688 C 125.816406 288.609375 131.703125 290.136719 137.59375 290.136719 C 143.699219 290.136719 149.804688 288.480469 155.476562 285.207031 L 222.5625 246.515625 C 228.234375 243.246094 232.726562 238.753906 235.78125 233.476562 L 235.78125 233.429688 C 238.878906 228.066406 240.535156 221.960938 240.535156 215.503906 C 240.535156 209.046875 238.878906 202.941406 235.78125 197.574219 C 232.683594 192.253906 228.234375 187.761719 222.5625 184.488281 L 163.460938 150.378906 C 161.84375 149.464844 160.144531 149.027344 158.398438 149.027344 C 154.867188 149.027344 151.464844 150.859375 149.589844 154.132812 C 146.796875 159.015625 148.453125 165.210938 153.339844 168 L 212.445312 202.113281 C 214.929688 203.550781 216.894531 205.472656 218.15625 207.695312 C 219.421875 209.921875 220.121094 212.582031 220.121094 215.503906 C 220.121094 218.425781 219.421875 221.085938 218.15625 223.269531 C 216.847656 225.535156 214.886719 227.5 212.445312 228.894531 L 145.355469 267.585938 C 142.871094 269.023438 140.253906 269.722656 137.59375 269.722656 C 135.105469 269.722656 132.621094 269.113281 130.265625 267.847656 C 130.132812 267.757812 130.003906 267.671875 129.871094 267.585938 C 127.34375 266.101562 125.378906 264.183594 124.113281 262 C 122.847656 259.777344 122.152344 257.117188 122.152344 254.195312 L 122.152344 239.058594 C 122.152344 233.429688 117.570312 228.851562 111.945312 228.851562 C 106.316406 228.851562 101.738281 233.386719 101.738281 239.058594 Z M 101.738281 239.058594 " fill-opacity="1" fill-rule="evenodd"/></g></svg>