<svg xmlns="http://www.w3.org/2000/svg" xmlns:xlink="http://www.w3.org/1999/xlink" width="500" zoomAndPan="magnify" viewBox="0 0 375 374.999991" height="500" preserveAspectRatio="xMidYMid meet" version="1.0"><defs><g/><clipPath id="943881db9f"><path d="M 34.75 121.746094 L 152.835938 121.746094 L 152.835938 236.25 L 34.75 236.25 Z M 34.75 121.746094 " clip-rule="nonzero"/></clipPath><clipPath id="ed2488ea25"><path d="M 52 121.746094 L 135.515625 121.746094 C 140.089844 121.746094 144.480469 123.5625 147.714844 126.796875 C 150.949219 130.03125 152.765625 134.417969 152.765625 138.996094 L 152.765625 219 C 152.765625 223.574219 150.949219 227.960938 147.714844 231.199219 C 144.480469 234.433594 140.089844 236.25 135.515625 236.25 L 52 236.25 C 47.425781 236.25 43.039062 234.433594 39.804688 231.199219 C 36.570312 227.960938 34.75 223.574219 34.75 219 L 34.75 138.996094 C 34.75 134.417969 36.570312 130.03125 39.804688 126.796875 C 43.039062 123.5625 47.425781 121.746094 52 121.746094 Z M 52 121.746094 " clip-rule="nonzero"/></clipPath><clipPath id="98a357debb"><path d="M 0.75 0.746094 L 118.835938 0.746094 L 118.835938 115.25 L 0.75 115.25 Z M 0.75 0.746094 " clip-rule="nonzero"/></clipPath><clipPath id="5563bb49aa"><path d="M 18 0.746094 L 101.515625 0.746094 C 106.089844 0.746094 110.480469 2.5625 113.714844 5.796875 C 116.949219 9.03125 118.765625 13.417969 118.765625 17.996094 L 118.765625 98 C 118.765625 102.574219 116.949219 106.960938 113.714844 110.199219 C 110.480469 113.433594 106.089844 115.25 101.515625 115.25 L 18 115.25 C 13.425781 115.25 9.039062 113.433594 5.804688 110.199219 C 2.570312 106.960938 0.75 102.574219 0.75 98 L 0.75 17.996094 C 0.75 13.417969 2.570312 9.03125 5.804688 5.796875 C 9.039062 2.5625 13.425781 0.746094 18 0.746094 Z M 18 0.746094 " clip-rule="nonzero"/></clipPath><clipPath id="976e0d7402"><rect x="0" width="119" y="0" height="116"/></clipPath><clipPath id="bc6f5ecd8f"><path d="M 62.726562 144.945312 L 127.976562 144.945312 L 127.976562 196 L 62.726562 196 Z M 62.726562 144.945312 " clip-rule="nonzero"/></clipPath><clipPath id="20b932de35"><path d="M 62.726562 168 L 110 168 L 110 216.195312 L 62.726562 216.195312 Z M 62.726562 168 " clip-rule="nonzero"/></clipPath></defs><g clip-path="url(#943881db9f)"><g clip-path="url(#ed2488ea25)"><g transform="matrix(1, 0, 0, 1, 34, 121)"><g clip-path="url(#976e0d7402)"><g clip-path="url(#98a357debb)"><g clip-path="url(#5563bb49aa)"><path fill="#ff3131" d="M 0.75 0.746094 L 118.835938 0.746094 L 118.835938 115.25 L 0.75 115.25 Z M 0.75 0.746094 " fill-opacity="1" fill-rule="nonzero"/></g></g></g></g></g></g><g clip-path="url(#bc6f5ecd8f)"><path fill="#f3f3f3" d="M 68.804688 146.617188 C 66.898438 147.710938 65.390625 149.234375 64.339844 151.039062 C 63.289062 152.855469 62.726562 154.925781 62.726562 157.128906 L 62.726562 178.183594 C 62.726562 180.371094 63.289062 182.441406 64.339844 184.257812 C 65.390625 186.0625 66.898438 187.585938 68.804688 188.695312 L 79.878906 195.097656 C 81.535156 196.058594 83.632812 195.496094 84.59375 193.839844 C 85.554688 192.183594 84.992188 190.082031 83.339844 189.121094 L 72.265625 182.722656 L 72.25 182.722656 C 71.40625 182.234375 70.742188 181.582031 70.3125 180.828125 C 69.882812 180.074219 69.648438 179.171875 69.648438 178.183594 L 69.648438 157.128906 C 69.648438 156.136719 69.882812 155.238281 70.3125 154.496094 L 70.3125 154.484375 C 70.742188 153.726562 71.40625 153.078125 72.265625 152.589844 C 73.105469 152.101562 73.996094 151.867188 74.882812 151.867188 C 75.769531 151.867188 76.671875 152.101562 77.5 152.589844 L 97.769531 164.300781 L 97.78125 164.300781 L 118.066406 175.996094 C 118.910156 176.480469 119.5625 177.132812 120.003906 177.902344 C 120.433594 178.65625 120.667969 179.542969 120.667969 180.546875 C 120.667969 181.480469 120.460938 182.335938 120.09375 183.046875 C 120.0625 183.089844 120.035156 183.136719 120.019531 183.179688 C 119.574219 183.949219 118.910156 184.613281 118.082031 185.085938 C 116.425781 186.03125 115.863281 188.148438 116.8125 189.789062 C 117.757812 191.445312 119.871094 192.007812 121.511719 191.058594 C 123.433594 189.949219 124.957031 188.429688 125.992188 186.640625 C 126.035156 186.566406 126.082031 186.492188 126.109375 186.402344 C 127.085938 184.644531 127.601562 182.648438 127.601562 180.53125 C 127.601562 178.34375 127.042969 176.273438 125.992188 174.457031 L 125.992188 174.441406 C 124.957031 172.652344 123.433594 171.128906 121.511719 170.019531 L 101.257812 158.328125 L 80.957031 146.617188 C 79.035156 145.507812 76.964844 144.945312 74.882812 144.945312 C 72.8125 144.945312 70.742188 145.507812 68.804688 146.617188 Z M 68.804688 146.617188 " fill-opacity="1" fill-rule="evenodd"/></g><g clip-path="url(#20b932de35)"><path fill="#ff8282" d="M 62.726562 198.820312 L 62.726562 203.953125 C 62.726562 206.140625 63.289062 208.210938 64.339844 210.027344 C 65.390625 211.847656 66.898438 213.371094 68.804688 214.464844 C 68.878906 214.507812 68.953125 214.550781 69.027344 214.582031 C 70.890625 215.617188 72.886719 216.132812 74.882812 216.132812 C 76.953125 216.132812 79.019531 215.574219 80.941406 214.464844 L 103.683594 201.351562 C 105.605469 200.242188 107.125 198.71875 108.160156 196.929688 L 108.160156 196.914062 C 109.210938 195.097656 109.773438 193.027344 109.773438 190.839844 C 109.773438 188.648438 109.210938 186.578125 108.160156 184.761719 C 107.113281 182.957031 105.605469 181.433594 103.683594 180.324219 L 83.648438 168.765625 C 83.101562 168.453125 82.523438 168.304688 81.933594 168.304688 C 80.734375 168.304688 79.582031 168.925781 78.945312 170.035156 C 78 171.691406 78.5625 173.792969 80.21875 174.738281 L 100.25 186.300781 C 101.09375 186.785156 101.761719 187.4375 102.1875 188.191406 C 102.617188 188.945312 102.855469 189.847656 102.855469 190.839844 C 102.855469 191.828125 102.617188 192.730469 102.1875 193.46875 C 101.746094 194.238281 101.078125 194.902344 100.25 195.375 L 77.511719 208.492188 C 76.671875 208.980469 75.785156 209.214844 74.882812 209.214844 C 74.039062 209.214844 73.195312 209.007812 72.398438 208.578125 C 72.351562 208.550781 72.308594 208.519531 72.265625 208.492188 C 71.40625 207.988281 70.742188 207.335938 70.3125 206.597656 C 69.882812 205.84375 69.648438 204.941406 69.648438 203.953125 L 69.648438 198.820312 C 69.648438 196.914062 68.09375 195.363281 66.1875 195.363281 C 64.28125 195.363281 62.726562 196.898438 62.726562 198.820312 Z M 62.726562 198.820312 " fill-opacity="1" fill-rule="evenodd"/></g><g fill="#000000" fill-opacity="1"><g transform="translate(167.620629, 208.247314)"><g><path d="M 2.421875 -50.421875 C 1.929688 -51.691406 1.941406 -52.78125 2.453125 -53.6875 C 2.960938 -54.59375 3.804688 -55.273438 4.984375 -55.734375 C 6.160156 -56.203125 7.457031 -56.4375 8.875 -56.4375 C 10.332031 -56.4375 11.453125 -56.21875 12.234375 -55.78125 C 13.015625 -55.34375 13.628906 -54.535156 14.078125 -53.359375 C 15.347656 -50.234375 16.484375 -47.300781 17.484375 -44.5625 C 18.484375 -41.820312 19.394531 -39.117188 20.21875 -36.453125 C 21.050781 -33.796875 21.867188 -31 22.671875 -28.0625 C 23.484375 -25.132812 24.332031 -21.910156 25.21875 -18.390625 C 26.875 -23.285156 28.492188 -27.722656 30.078125 -31.703125 C 31.671875 -35.679688 33.320312 -39.503906 35.03125 -43.171875 C 36.738281 -46.835938 38.546875 -50.578125 40.453125 -54.390625 C 41.085938 -55.554688 41.804688 -56.410156 42.609375 -56.953125 C 43.421875 -57.492188 44.460938 -57.765625 45.734375 -57.765625 C 47.054688 -57.765625 48.265625 -57.492188 49.359375 -56.953125 C 50.460938 -56.410156 51.269531 -55.695312 51.78125 -54.8125 C 52.289062 -53.9375 52.28125 -52.988281 51.75 -51.96875 C 49.5 -47.570312 47.273438 -43.023438 45.078125 -38.328125 C 42.878906 -33.640625 40.773438 -29.082031 38.765625 -24.65625 C 36.765625 -20.238281 34.96875 -16.125 33.375 -12.3125 C 31.789062 -8.5 30.460938 -5.25 29.390625 -2.5625 C 29.003906 -1.539062 28.257812 -0.601562 27.15625 0.25 C 26.050781 1.113281 24.742188 1.546875 23.234375 1.546875 C 21.421875 1.546875 20.015625 1.128906 19.015625 0.296875 C 18.015625 -0.535156 17.34375 -1.6875 17 -3.15625 C 16.019531 -7.457031 15.015625 -11.535156 13.984375 -15.390625 C 12.960938 -19.253906 11.890625 -23.050781 10.765625 -26.78125 C 9.648438 -30.519531 8.40625 -34.320312 7.03125 -38.1875 C 5.664062 -42.050781 4.128906 -46.128906 2.421875 -50.421875 Z M 2.421875 -50.421875 "/></g></g></g><g fill="#000000" fill-opacity="1"><g transform="translate(219.802423, 208.247314)"><g><path d="M 6.15625 -36.0625 C 6.15625 -37.039062 6.445312 -37.847656 7.03125 -38.484375 C 7.625 -39.117188 8.382812 -39.601562 9.3125 -39.9375 C 10.238281 -40.28125 11.140625 -40.453125 12.015625 -40.453125 C 14.066406 -40.453125 15.601562 -40.085938 16.625 -39.359375 C 17.65625 -38.628906 18.171875 -37.53125 18.171875 -36.0625 C 18.171875 -32.738281 18.085938 -29.769531 17.921875 -27.15625 C 17.753906 -24.539062 17.554688 -22.023438 17.328125 -19.609375 C 17.109375 -17.191406 16.898438 -14.660156 16.703125 -12.015625 C 16.515625 -9.378906 16.367188 -6.351562 16.265625 -2.9375 C 16.222656 -1.5625 15.660156 -0.546875 14.578125 0.109375 C 13.503906 0.765625 12.039062 1.09375 10.1875 1.09375 C 8.476562 1.09375 7.179688 0.847656 6.296875 0.359375 C 5.421875 -0.117188 4.835938 -0.710938 4.546875 -1.421875 C 4.253906 -2.128906 4.109375 -2.851562 4.109375 -3.59375 C 4.109375 -4.03125 4.164062 -5.101562 4.28125 -6.8125 C 4.40625 -8.519531 4.566406 -10.617188 4.765625 -13.109375 C 4.960938 -15.609375 5.171875 -18.25 5.390625 -21.03125 C 5.609375 -23.820312 5.789062 -26.535156 5.9375 -29.171875 C 6.082031 -31.804688 6.15625 -34.101562 6.15625 -36.0625 Z M 5.9375 -52.109375 C 5.9375 -53.484375 6.226562 -54.679688 6.8125 -55.703125 C 7.40625 -56.734375 8.203125 -57.53125 9.203125 -58.09375 C 10.203125 -58.65625 11.3125 -58.9375 12.53125 -58.9375 C 14.632812 -58.9375 16.234375 -58.601562 17.328125 -57.9375 C 18.429688 -57.28125 19.175781 -56.488281 19.5625 -55.5625 C 19.957031 -54.632812 20.15625 -53.753906 20.15625 -52.921875 C 20.15625 -50.867188 19.457031 -49.242188 18.0625 -48.046875 C 16.675781 -46.847656 14.882812 -46.25 12.6875 -46.25 C 10.675781 -46.25 9.046875 -46.75 7.796875 -47.75 C 6.554688 -48.75 5.9375 -50.203125 5.9375 -52.109375 Z M 5.9375 -52.109375 "/></g></g></g><g fill="#000000" fill-opacity="1"><g transform="translate(242.375446, 208.247314)"><g><path d="M 30.71875 -56.8125 C 30.8125 -58.414062 31.359375 -59.535156 32.359375 -60.171875 C 33.359375 -60.804688 34.664062 -61.125 36.28125 -61.125 C 38.476562 -61.125 40.140625 -60.796875 41.265625 -60.140625 C 42.390625 -59.484375 42.90625 -58.25 42.8125 -56.4375 C 42.21875 -47.9375 41.722656 -39.128906 41.328125 -30.015625 C 40.941406 -20.898438 40.554688 -11.96875 40.171875 -3.21875 C 40.117188 -1.707031 39.441406 -0.632812 38.140625 0 C 36.847656 0.632812 35.398438 0.953125 33.796875 0.953125 C 32.078125 0.953125 30.765625 0.613281 29.859375 -0.0625 C 28.960938 -0.75 28.515625 -1.554688 28.515625 -2.484375 C 28.515625 -2.972656 28.535156 -3.4375 28.578125 -3.875 C 28.628906 -4.320312 28.691406 -4.8125 28.765625 -5.34375 C 28.835938 -5.882812 28.875 -6.472656 28.875 -7.109375 C 27.945312 -5.253906 26.847656 -3.75 25.578125 -2.59375 C 24.304688 -1.445312 22.898438 -0.59375 21.359375 -0.03125 C 19.828125 0.53125 18.226562 0.8125 16.5625 0.8125 C 14.019531 0.8125 11.84375 0.265625 10.03125 -0.828125 C 8.226562 -1.929688 6.773438 -3.390625 5.671875 -5.203125 C 4.578125 -7.015625 3.769531 -8.96875 3.25 -11.0625 C 2.738281 -13.164062 2.484375 -15.195312 2.484375 -17.15625 C 2.484375 -20.03125 2.9375 -22.859375 3.84375 -25.640625 C 4.75 -28.429688 6.019531 -30.9375 7.65625 -33.15625 C 9.289062 -35.382812 11.253906 -37.171875 13.546875 -38.515625 C 15.847656 -39.859375 18.414062 -40.53125 21.25 -40.53125 C 22.625 -40.53125 23.992188 -40.347656 25.359375 -39.984375 C 26.722656 -39.617188 28.09375 -39.046875 29.46875 -38.265625 C 29.613281 -40.503906 29.742188 -42.695312 29.859375 -44.84375 C 29.984375 -47 30.117188 -49.09375 30.265625 -51.125 C 30.410156 -53.15625 30.5625 -55.050781 30.71875 -56.8125 Z M 14.953125 -17.59375 C 14.953125 -16.175781 15.109375 -14.816406 15.421875 -13.515625 C 15.742188 -12.222656 16.242188 -11.171875 16.921875 -10.359375 C 17.609375 -9.554688 18.488281 -9.15625 19.5625 -9.15625 C 20.644531 -9.15625 21.660156 -9.554688 22.609375 -10.359375 C 23.566406 -11.171875 24.398438 -12.195312 25.109375 -13.4375 C 25.816406 -14.6875 26.398438 -16.019531 26.859375 -17.4375 C 27.328125 -18.851562 27.609375 -20.175781 27.703125 -21.40625 C 27.753906 -21.644531 27.828125 -21.875 27.921875 -22.09375 C 28.023438 -22.3125 28.195312 -22.519531 28.4375 -22.71875 L 28.8125 -29.171875 C 27.832031 -29.953125 26.9375 -30.476562 26.125 -30.75 C 25.320312 -31.019531 24.429688 -31.15625 23.453125 -31.15625 C 22.085938 -31.15625 20.753906 -30.648438 19.453125 -29.640625 C 18.160156 -28.640625 17.085938 -27.140625 16.234375 -25.140625 C 15.378906 -23.140625 14.953125 -20.625 14.953125 -17.59375 Z M 14.953125 -17.59375 "/></g></g></g><g fill="#000000" fill-opacity="1"><g transform="translate(287.814644, 208.247314)"><g><path d="M 22.65625 -40.53125 C 23.820312 -40.53125 25.1875 -40.40625 26.75 -40.15625 C 28.3125 -39.914062 29.789062 -39.578125 31.1875 -39.140625 C 32.582031 -38.703125 33.644531 -38.164062 34.375 -37.53125 C 36.71875 -35.71875 38.425781 -33.34375 39.5 -30.40625 C 40.582031 -27.476562 41.125 -24.351562 41.125 -21.03125 C 41.125 -18.34375 40.753906 -15.71875 40.015625 -13.15625 C 39.285156 -10.59375 38.160156 -8.285156 36.640625 -6.234375 C 35.128906 -4.179688 33.222656 -2.539062 30.921875 -1.3125 C 28.628906 -0.09375 25.921875 0.515625 22.796875 0.515625 C 19.222656 0.515625 16.140625 -0.0195312 13.546875 -1.09375 C 10.960938 -2.175781 8.828125 -3.664062 7.140625 -5.5625 C 5.460938 -7.46875 4.21875 -9.644531 3.40625 -12.09375 C 2.601562 -14.539062 2.203125 -17.128906 2.203125 -19.859375 C 2.203125 -22.503906 2.601562 -25.054688 3.40625 -27.515625 C 4.21875 -29.984375 5.460938 -32.179688 7.140625 -34.109375 C 8.828125 -36.046875 10.953125 -37.597656 13.515625 -38.765625 C 16.085938 -39.941406 19.132812 -40.53125 22.65625 -40.53125 Z M 14.4375 -20.234375 C 14.4375 -18.421875 14.703125 -16.644531 15.234375 -14.90625 C 15.773438 -13.175781 16.628906 -11.75 17.796875 -10.625 C 18.972656 -9.5 20.46875 -8.9375 22.28125 -8.9375 C 23.5 -8.9375 24.535156 -9.289062 25.390625 -10 C 26.253906 -10.707031 26.941406 -11.632812 27.453125 -12.78125 C 27.960938 -13.9375 28.328125 -15.1875 28.546875 -16.53125 C 28.765625 -17.875 28.875 -19.179688 28.875 -20.453125 C 28.875 -23.234375 28.519531 -25.429688 27.8125 -27.046875 C 27.101562 -28.660156 26.164062 -29.882812 25 -30.71875 C 24.457031 -30.863281 23.976562 -30.972656 23.5625 -31.046875 C 23.144531 -31.117188 22.691406 -31.15625 22.203125 -31.15625 C 20.785156 -31.15625 19.5625 -30.835938 18.53125 -30.203125 C 17.507812 -29.566406 16.707031 -28.734375 16.125 -27.703125 C 15.539062 -26.679688 15.113281 -25.535156 14.84375 -24.265625 C 14.570312 -22.992188 14.4375 -21.648438 14.4375 -20.234375 Z M 14.4375 -20.234375 "/></g></g></g></svg>